<mxfile host="app.diagrams.net" agent="Mozilla/5.0 (Windows NT 10.0; Win64; x64) AppleWebKit/537.36 (KHTML, like Gecko) Chrome/131.0.0.0 Safari/537.36" version="26.0.5">
  <diagram name="Страница — 1" id="nuYtZsiLF_g_40ZikYUk">
    <mxGraphModel dx="1086" dy="454" grid="1" gridSize="10" guides="1" tooltips="1" connect="1" arrows="1" fold="1" page="1" pageScale="1" pageWidth="827" pageHeight="1169" math="0" shadow="0">
      <root>
        <mxCell id="0" />
        <mxCell id="1" parent="0" />
        <mxCell id="16dxM0aAbaQ2dDeS6xyN-41" value="" style="edgeStyle=orthogonalEdgeStyle;rounded=0;orthogonalLoop=1;jettySize=auto;html=1;" parent="1" source="2" target="16dxM0aAbaQ2dDeS6xyN-40" edge="1">
          <mxGeometry relative="1" as="geometry" />
        </mxCell>
        <mxCell id="dktV3mZU1H456DEl9xND-20" style="edgeStyle=orthogonalEdgeStyle;rounded=0;orthogonalLoop=1;jettySize=auto;html=1;entryX=1;entryY=0.5;entryDx=0;entryDy=0;" edge="1" parent="1" source="2" target="dktV3mZU1H456DEl9xND-18">
          <mxGeometry relative="1" as="geometry" />
        </mxCell>
        <mxCell id="dktV3mZU1H456DEl9xND-22" value="" style="edgeStyle=orthogonalEdgeStyle;rounded=0;orthogonalLoop=1;jettySize=auto;html=1;" edge="1" parent="1" source="2" target="dktV3mZU1H456DEl9xND-19">
          <mxGeometry relative="1" as="geometry" />
        </mxCell>
        <mxCell id="2" value="otevreni stranky" style="whiteSpace=wrap;strokeWidth=2;" parent="1" vertex="1">
          <mxGeometry x="703" y="50" width="113" height="54" as="geometry" />
        </mxCell>
        <mxCell id="11" value="historie" style="rounded=1;arcSize=40;strokeWidth=2" parent="1" vertex="1">
          <mxGeometry x="714" y="392" width="91" height="54" as="geometry" />
        </mxCell>
        <mxCell id="14" value="telefon" style="rounded=1;arcSize=40;strokeWidth=2" parent="1" vertex="1">
          <mxGeometry x="1010" y="294" width="56" height="54" as="geometry" />
        </mxCell>
        <mxCell id="15" value="Email" style="rounded=1;arcSize=40;strokeWidth=2" parent="1" vertex="1">
          <mxGeometry x="935" y="294" width="55" height="54" as="geometry" />
        </mxCell>
        <mxCell id="16" value="adresa" style="rounded=1;arcSize=40;strokeWidth=2" parent="1" vertex="1">
          <mxGeometry x="1080" y="294" width="60" height="54" as="geometry" />
        </mxCell>
        <mxCell id="18" value="hra" style="rounded=1;arcSize=40;strokeWidth=2" parent="1" vertex="1">
          <mxGeometry x="503.5" y="280" width="113" height="54" as="geometry" />
        </mxCell>
        <mxCell id="16dxM0aAbaQ2dDeS6xyN-39" value="" style="edgeStyle=orthogonalEdgeStyle;rounded=0;orthogonalLoop=1;jettySize=auto;html=1;" parent="1" source="16dxM0aAbaQ2dDeS6xyN-38" target="2" edge="1">
          <mxGeometry relative="1" as="geometry" />
        </mxCell>
        <mxCell id="16dxM0aAbaQ2dDeS6xyN-38" value="" style="ellipse;whiteSpace=wrap;html=1;aspect=fixed;fillColor=#000000;" parent="1" vertex="1">
          <mxGeometry x="744.5" width="30" height="30" as="geometry" />
        </mxCell>
        <mxCell id="16dxM0aAbaQ2dDeS6xyN-52" style="edgeStyle=orthogonalEdgeStyle;rounded=0;orthogonalLoop=1;jettySize=auto;html=1;exitX=0;exitY=0.5;exitDx=0;exitDy=0;" parent="1" source="16dxM0aAbaQ2dDeS6xyN-40" target="16dxM0aAbaQ2dDeS6xyN-49" edge="1">
          <mxGeometry relative="1" as="geometry" />
        </mxCell>
        <mxCell id="16dxM0aAbaQ2dDeS6xyN-53" value="" style="edgeStyle=orthogonalEdgeStyle;rounded=0;orthogonalLoop=1;jettySize=auto;html=1;" parent="1" source="16dxM0aAbaQ2dDeS6xyN-40" target="16dxM0aAbaQ2dDeS6xyN-48" edge="1">
          <mxGeometry relative="1" as="geometry" />
        </mxCell>
        <mxCell id="16dxM0aAbaQ2dDeS6xyN-58" style="edgeStyle=orthogonalEdgeStyle;rounded=0;orthogonalLoop=1;jettySize=auto;html=1;exitX=1;exitY=0.5;exitDx=0;exitDy=0;" parent="1" source="16dxM0aAbaQ2dDeS6xyN-40" target="16dxM0aAbaQ2dDeS6xyN-47" edge="1">
          <mxGeometry relative="1" as="geometry" />
        </mxCell>
        <mxCell id="16dxM0aAbaQ2dDeS6xyN-70" style="edgeStyle=orthogonalEdgeStyle;rounded=0;orthogonalLoop=1;jettySize=auto;html=1;exitX=0;exitY=0;exitDx=0;exitDy=0;entryX=0.5;entryY=0;entryDx=0;entryDy=0;" parent="1" source="16dxM0aAbaQ2dDeS6xyN-40" target="16dxM0aAbaQ2dDeS6xyN-50" edge="1">
          <mxGeometry relative="1" as="geometry">
            <Array as="points">
              <mxPoint x="739" y="160" />
              <mxPoint x="287" y="160" />
            </Array>
          </mxGeometry>
        </mxCell>
        <mxCell id="16dxM0aAbaQ2dDeS6xyN-82" style="edgeStyle=orthogonalEdgeStyle;rounded=0;orthogonalLoop=1;jettySize=auto;html=1;exitX=1;exitY=0;exitDx=0;exitDy=0;entryX=0.5;entryY=0;entryDx=0;entryDy=0;" parent="1" source="16dxM0aAbaQ2dDeS6xyN-40" target="16dxM0aAbaQ2dDeS6xyN-81" edge="1">
          <mxGeometry relative="1" as="geometry">
            <Array as="points">
              <mxPoint x="780" y="160" />
              <mxPoint x="1345" y="160" />
            </Array>
          </mxGeometry>
        </mxCell>
        <mxCell id="16dxM0aAbaQ2dDeS6xyN-40" value="menu" style="rhombus;whiteSpace=wrap;html=1;" parent="1" vertex="1">
          <mxGeometry x="719.5" y="170" width="80" height="80" as="geometry" />
        </mxCell>
        <mxCell id="16dxM0aAbaQ2dDeS6xyN-42" value="" style="ellipse;whiteSpace=wrap;html=1;aspect=fixed;strokeColor=#000000;fillColor=#000000;" parent="1" vertex="1">
          <mxGeometry x="749.5" y="607" width="20" height="20" as="geometry" />
        </mxCell>
        <mxCell id="16dxM0aAbaQ2dDeS6xyN-43" value="" style="ellipse;whiteSpace=wrap;html=1;aspect=fixed;fillColor=none;" parent="1" vertex="1">
          <mxGeometry x="744.5" y="602" width="30" height="30" as="geometry" />
        </mxCell>
        <mxCell id="16dxM0aAbaQ2dDeS6xyN-77" style="edgeStyle=orthogonalEdgeStyle;rounded=0;orthogonalLoop=1;jettySize=auto;html=1;exitX=0;exitY=1;exitDx=0;exitDy=0;entryX=0.5;entryY=0;entryDx=0;entryDy=0;" parent="1" source="16dxM0aAbaQ2dDeS6xyN-47" target="15" edge="1">
          <mxGeometry relative="1" as="geometry" />
        </mxCell>
        <mxCell id="16dxM0aAbaQ2dDeS6xyN-78" style="edgeStyle=orthogonalEdgeStyle;rounded=0;orthogonalLoop=1;jettySize=auto;html=1;exitX=0.5;exitY=1;exitDx=0;exitDy=0;entryX=0.5;entryY=0;entryDx=0;entryDy=0;" parent="1" source="16dxM0aAbaQ2dDeS6xyN-47" target="14" edge="1">
          <mxGeometry relative="1" as="geometry" />
        </mxCell>
        <mxCell id="16dxM0aAbaQ2dDeS6xyN-79" style="edgeStyle=orthogonalEdgeStyle;rounded=0;orthogonalLoop=1;jettySize=auto;html=1;exitX=1;exitY=1;exitDx=0;exitDy=0;entryX=0.5;entryY=0;entryDx=0;entryDy=0;" parent="1" source="16dxM0aAbaQ2dDeS6xyN-47" target="16" edge="1">
          <mxGeometry relative="1" as="geometry" />
        </mxCell>
        <mxCell id="16dxM0aAbaQ2dDeS6xyN-80" style="edgeStyle=orthogonalEdgeStyle;rounded=0;orthogonalLoop=1;jettySize=auto;html=1;exitX=1;exitY=0.5;exitDx=0;exitDy=0;" parent="1" source="16dxM0aAbaQ2dDeS6xyN-47" target="16dxM0aAbaQ2dDeS6xyN-59" edge="1">
          <mxGeometry relative="1" as="geometry" />
        </mxCell>
        <mxCell id="16dxM0aAbaQ2dDeS6xyN-47" value="&lt;span style=&quot;text-wrap-mode: nowrap;&quot;&gt;Contact&lt;/span&gt;" style="rounded=1;whiteSpace=wrap;html=1;" parent="1" vertex="1">
          <mxGeometry x="1020" y="180" width="120" height="60" as="geometry" />
        </mxCell>
        <mxCell id="16dxM0aAbaQ2dDeS6xyN-56" value="" style="edgeStyle=orthogonalEdgeStyle;rounded=0;orthogonalLoop=1;jettySize=auto;html=1;" parent="1" source="16dxM0aAbaQ2dDeS6xyN-48" target="11" edge="1">
          <mxGeometry relative="1" as="geometry" />
        </mxCell>
        <mxCell id="16dxM0aAbaQ2dDeS6xyN-48" value="About" style="rounded=1;whiteSpace=wrap;html=1;" parent="1" vertex="1">
          <mxGeometry x="699.5" y="294" width="120" height="60" as="geometry" />
        </mxCell>
        <mxCell id="16dxM0aAbaQ2dDeS6xyN-54" value="" style="edgeStyle=orthogonalEdgeStyle;rounded=0;orthogonalLoop=1;jettySize=auto;html=1;" parent="1" source="16dxM0aAbaQ2dDeS6xyN-49" target="18" edge="1">
          <mxGeometry relative="1" as="geometry" />
        </mxCell>
        <mxCell id="16dxM0aAbaQ2dDeS6xyN-49" value="Play game" style="rounded=1;whiteSpace=wrap;html=1;" parent="1" vertex="1">
          <mxGeometry x="500" y="180" width="120" height="60" as="geometry" />
        </mxCell>
        <mxCell id="16dxM0aAbaQ2dDeS6xyN-63" style="edgeStyle=orthogonalEdgeStyle;rounded=0;orthogonalLoop=1;jettySize=auto;html=1;exitX=0.5;exitY=1;exitDx=0;exitDy=0;" parent="1" source="16dxM0aAbaQ2dDeS6xyN-50" target="16dxM0aAbaQ2dDeS6xyN-62" edge="1">
          <mxGeometry relative="1" as="geometry" />
        </mxCell>
        <mxCell id="16dxM0aAbaQ2dDeS6xyN-50" value="Games" style="rounded=1;whiteSpace=wrap;html=1;" parent="1" vertex="1">
          <mxGeometry x="227" y="180" width="120" height="60" as="geometry" />
        </mxCell>
        <mxCell id="16dxM0aAbaQ2dDeS6xyN-59" value="Send us a Message" style="rounded=1;arcSize=40;strokeWidth=2" parent="1" vertex="1">
          <mxGeometry x="1160" y="297" width="110" height="54" as="geometry" />
        </mxCell>
        <mxCell id="16dxM0aAbaQ2dDeS6xyN-71" value="" style="edgeStyle=orthogonalEdgeStyle;rounded=0;orthogonalLoop=1;jettySize=auto;html=1;" parent="1" source="16dxM0aAbaQ2dDeS6xyN-62" target="16dxM0aAbaQ2dDeS6xyN-69" edge="1">
          <mxGeometry relative="1" as="geometry" />
        </mxCell>
        <mxCell id="16dxM0aAbaQ2dDeS6xyN-72" style="edgeStyle=orthogonalEdgeStyle;rounded=0;orthogonalLoop=1;jettySize=auto;html=1;exitX=1;exitY=0;exitDx=0;exitDy=0;" parent="1" source="16dxM0aAbaQ2dDeS6xyN-62" target="16dxM0aAbaQ2dDeS6xyN-66" edge="1">
          <mxGeometry relative="1" as="geometry">
            <Array as="points">
              <mxPoint x="310" y="374" />
              <mxPoint x="310" y="327" />
            </Array>
          </mxGeometry>
        </mxCell>
        <mxCell id="16dxM0aAbaQ2dDeS6xyN-73" style="edgeStyle=orthogonalEdgeStyle;rounded=0;orthogonalLoop=1;jettySize=auto;html=1;exitX=1;exitY=1;exitDx=0;exitDy=0;entryX=0;entryY=0.5;entryDx=0;entryDy=0;" parent="1" source="16dxM0aAbaQ2dDeS6xyN-62" target="16dxM0aAbaQ2dDeS6xyN-65" edge="1">
          <mxGeometry relative="1" as="geometry">
            <Array as="points">
              <mxPoint x="310" y="414" />
              <mxPoint x="310" y="473" />
            </Array>
          </mxGeometry>
        </mxCell>
        <mxCell id="16dxM0aAbaQ2dDeS6xyN-74" value="" style="edgeStyle=orthogonalEdgeStyle;rounded=0;orthogonalLoop=1;jettySize=auto;html=1;" parent="1" source="16dxM0aAbaQ2dDeS6xyN-62" target="16dxM0aAbaQ2dDeS6xyN-67" edge="1">
          <mxGeometry relative="1" as="geometry" />
        </mxCell>
        <mxCell id="16dxM0aAbaQ2dDeS6xyN-75" style="edgeStyle=orthogonalEdgeStyle;rounded=0;orthogonalLoop=1;jettySize=auto;html=1;exitX=0;exitY=0;exitDx=0;exitDy=0;entryX=1;entryY=0.5;entryDx=0;entryDy=0;" parent="1" source="16dxM0aAbaQ2dDeS6xyN-62" target="16dxM0aAbaQ2dDeS6xyN-64" edge="1">
          <mxGeometry relative="1" as="geometry">
            <Array as="points">
              <mxPoint x="257" y="374" />
              <mxPoint x="257" y="327" />
            </Array>
          </mxGeometry>
        </mxCell>
        <mxCell id="16dxM0aAbaQ2dDeS6xyN-76" style="edgeStyle=orthogonalEdgeStyle;rounded=0;orthogonalLoop=1;jettySize=auto;html=1;exitX=0;exitY=1;exitDx=0;exitDy=0;entryX=1;entryY=0.5;entryDx=0;entryDy=0;" parent="1" source="16dxM0aAbaQ2dDeS6xyN-62" target="16dxM0aAbaQ2dDeS6xyN-68" edge="1">
          <mxGeometry relative="1" as="geometry">
            <Array as="points">
              <mxPoint x="257" y="414" />
              <mxPoint x="257" y="473" />
            </Array>
          </mxGeometry>
        </mxCell>
        <mxCell id="16dxM0aAbaQ2dDeS6xyN-94" style="edgeStyle=orthogonalEdgeStyle;rounded=0;orthogonalLoop=1;jettySize=auto;html=1;exitX=0.5;exitY=1;exitDx=0;exitDy=0;" parent="1" source="16dxM0aAbaQ2dDeS6xyN-62" target="16dxM0aAbaQ2dDeS6xyN-93" edge="1">
          <mxGeometry relative="1" as="geometry" />
        </mxCell>
        <mxCell id="16dxM0aAbaQ2dDeS6xyN-62" value="Obchod" style="rhombus;whiteSpace=wrap;html=1;" parent="1" vertex="1">
          <mxGeometry x="247" y="354" width="80" height="80" as="geometry" />
        </mxCell>
        <mxCell id="16dxM0aAbaQ2dDeS6xyN-64" value="Produkt 1" style="rounded=1;arcSize=40;strokeWidth=2" parent="1" vertex="1">
          <mxGeometry x="150" y="300" width="87" height="54" as="geometry" />
        </mxCell>
        <mxCell id="16dxM0aAbaQ2dDeS6xyN-65" value="Produkt 6" style="rounded=1;arcSize=40;strokeWidth=2" parent="1" vertex="1">
          <mxGeometry x="330" y="446" width="87" height="54" as="geometry" />
        </mxCell>
        <mxCell id="16dxM0aAbaQ2dDeS6xyN-66" value="Produkt 5" style="rounded=1;arcSize=40;strokeWidth=2" parent="1" vertex="1">
          <mxGeometry x="330" y="300" width="87" height="54" as="geometry" />
        </mxCell>
        <mxCell id="16dxM0aAbaQ2dDeS6xyN-67" value="Produkt 2" style="rounded=1;arcSize=40;strokeWidth=2" parent="1" vertex="1">
          <mxGeometry x="110" y="367" width="87" height="54" as="geometry" />
        </mxCell>
        <mxCell id="16dxM0aAbaQ2dDeS6xyN-68" value="Produkt 3" style="rounded=1;arcSize=40;strokeWidth=2" parent="1" vertex="1">
          <mxGeometry x="150" y="446" width="87" height="54" as="geometry" />
        </mxCell>
        <mxCell id="16dxM0aAbaQ2dDeS6xyN-69" value="Produkt 4" style="rounded=1;arcSize=40;strokeWidth=2" parent="1" vertex="1">
          <mxGeometry x="370" y="367" width="87" height="54" as="geometry" />
        </mxCell>
        <mxCell id="16dxM0aAbaQ2dDeS6xyN-87" value="" style="edgeStyle=orthogonalEdgeStyle;rounded=0;orthogonalLoop=1;jettySize=auto;html=1;" parent="1" source="16dxM0aAbaQ2dDeS6xyN-81" target="16dxM0aAbaQ2dDeS6xyN-84" edge="1">
          <mxGeometry relative="1" as="geometry" />
        </mxCell>
        <mxCell id="16dxM0aAbaQ2dDeS6xyN-88" style="edgeStyle=orthogonalEdgeStyle;rounded=0;orthogonalLoop=1;jettySize=auto;html=1;entryX=0.5;entryY=0;entryDx=0;entryDy=0;" parent="1" source="16dxM0aAbaQ2dDeS6xyN-81" target="16dxM0aAbaQ2dDeS6xyN-85" edge="1">
          <mxGeometry relative="1" as="geometry" />
        </mxCell>
        <mxCell id="16dxM0aAbaQ2dDeS6xyN-81" value="&amp;nbsp;&lt;br&gt;&lt;span style=&quot;color: rgb(0, 0, 0); font-family: Helvetica; font-size: 12px; font-style: normal; font-variant-ligatures: normal; font-variant-caps: normal; font-weight: 400; letter-spacing: normal; orphans: 2; text-align: center; text-indent: 0px; text-transform: none; widows: 2; word-spacing: 0px; -webkit-text-stroke-width: 0px; white-space: normal; background-color: rgb(251, 251, 251); text-decoration-thickness: initial; text-decoration-style: initial; text-decoration-color: initial; float: none; display: inline !important;&quot;&gt;Login / Sing in&lt;/span&gt;&lt;div&gt;&lt;br/&gt;&lt;/div&gt;" style="rhombus;whiteSpace=wrap;html=1;" parent="1" vertex="1">
          <mxGeometry x="1280" y="170" width="130" height="80" as="geometry" />
        </mxCell>
        <mxCell id="16dxM0aAbaQ2dDeS6xyN-84" value="Login" style="rounded=1;arcSize=40;strokeWidth=2" parent="1" vertex="1">
          <mxGeometry x="1285" y="297" width="120" height="54" as="geometry" />
        </mxCell>
        <mxCell id="16dxM0aAbaQ2dDeS6xyN-92" value="" style="edgeStyle=orthogonalEdgeStyle;rounded=0;orthogonalLoop=1;jettySize=auto;html=1;" parent="1" source="16dxM0aAbaQ2dDeS6xyN-85" target="16dxM0aAbaQ2dDeS6xyN-91" edge="1">
          <mxGeometry relative="1" as="geometry" />
        </mxCell>
        <mxCell id="16dxM0aAbaQ2dDeS6xyN-85" value="Sing in" style="rounded=1;arcSize=40;strokeWidth=2" parent="1" vertex="1">
          <mxGeometry x="1430" y="297" width="120" height="54" as="geometry" />
        </mxCell>
        <mxCell id="16dxM0aAbaQ2dDeS6xyN-91" value="potvrzení emailu" style="rounded=1;arcSize=40;strokeWidth=2" parent="1" vertex="1">
          <mxGeometry x="1430" y="380" width="120" height="54" as="geometry" />
        </mxCell>
        <mxCell id="16dxM0aAbaQ2dDeS6xyN-96" value="" style="edgeStyle=orthogonalEdgeStyle;rounded=0;orthogonalLoop=1;jettySize=auto;html=1;" parent="1" source="16dxM0aAbaQ2dDeS6xyN-93" target="16dxM0aAbaQ2dDeS6xyN-95" edge="1">
          <mxGeometry relative="1" as="geometry" />
        </mxCell>
        <mxCell id="16dxM0aAbaQ2dDeS6xyN-93" value="košik" style="rounded=1;arcSize=40;strokeWidth=2" parent="1" vertex="1">
          <mxGeometry x="243.5" y="500" width="87" height="54" as="geometry" />
        </mxCell>
        <mxCell id="16dxM0aAbaQ2dDeS6xyN-98" style="edgeStyle=orthogonalEdgeStyle;rounded=0;orthogonalLoop=1;jettySize=auto;html=1;exitX=1;exitY=0.5;exitDx=0;exitDy=0;entryX=0;entryY=0.5;entryDx=0;entryDy=0;" parent="1" source="16dxM0aAbaQ2dDeS6xyN-95" target="16dxM0aAbaQ2dDeS6xyN-43" edge="1">
          <mxGeometry relative="1" as="geometry" />
        </mxCell>
        <mxCell id="16dxM0aAbaQ2dDeS6xyN-95" value="platba" style="rounded=1;arcSize=40;strokeWidth=2" parent="1" vertex="1">
          <mxGeometry x="243.5" y="590" width="87" height="54" as="geometry" />
        </mxCell>
        <mxCell id="dktV3mZU1H456DEl9xND-21" style="edgeStyle=orthogonalEdgeStyle;rounded=0;orthogonalLoop=1;jettySize=auto;html=1;exitX=0;exitY=0.5;exitDx=0;exitDy=0;entryX=0.25;entryY=0;entryDx=0;entryDy=0;" edge="1" parent="1" source="dktV3mZU1H456DEl9xND-18" target="16dxM0aAbaQ2dDeS6xyN-50">
          <mxGeometry relative="1" as="geometry" />
        </mxCell>
        <mxCell id="dktV3mZU1H456DEl9xND-18" value="Explore our games" style="rhombus;whiteSpace=wrap;html=1;" vertex="1" parent="1">
          <mxGeometry x="450" y="37" width="100" height="80" as="geometry" />
        </mxCell>
        <mxCell id="dktV3mZU1H456DEl9xND-24" style="edgeStyle=orthogonalEdgeStyle;rounded=0;orthogonalLoop=1;jettySize=auto;html=1;exitX=0.5;exitY=1;exitDx=0;exitDy=0;entryX=1;entryY=0.5;entryDx=0;entryDy=0;" edge="1" parent="1" source="dktV3mZU1H456DEl9xND-19" target="16dxM0aAbaQ2dDeS6xyN-48">
          <mxGeometry relative="1" as="geometry" />
        </mxCell>
        <mxCell id="dktV3mZU1H456DEl9xND-19" value="Learn more" style="rhombus;whiteSpace=wrap;html=1;" vertex="1" parent="1">
          <mxGeometry x="860" y="37" width="80" height="80" as="geometry" />
        </mxCell>
      </root>
    </mxGraphModel>
  </diagram>
</mxfile>
